<svg width="29" height="29" viewBox="0 0 29 29" fill="none" xmlns="http://www.w3.org/2000/svg">
<path d="M14.5 0C6.51938 0 0 6.48184 0 14.5C0 22.4806 6.48185 29 14.5 29C22.5182 29 29 22.4808 29 14.5C29 6.51925 22.4808 0 14.5 0ZM14.5 7.4186C16.9729 7.4186 18.9961 9.44173 18.9961 11.9147C18.9961 14.3876 16.9729 16.4107 14.5 16.4107C12.0271 16.4107 10.0039 14.3876 10.0039 11.9147C10.0039 9.44173 12.0271 7.4186 14.5 7.4186ZM14.5 24.0026C11.7273 24.0026 9.21699 23.0285 7.23127 21.4172C9.29206 19.1317 11.8397 17.8952 14.5 17.8952C17.1603 17.8952 19.708 19.1316 21.7687 21.4172C19.7829 23.0282 17.2727 24.0026 14.5 24.0026Z" fill="#C2C1C1"/>
</svg>
